/* XPM */
static char * stonesense_xpm[] = {
"16 16 15 1",
" 	c None",
".	c #025811",
"+	c #9CD72A",
"@	c #6ABF18",
"#	c #4A9E20",
"$	c #7AB64E",
"%	c #000000",
"&	c #929DB3",
"*	c #A2ACBE",
"=	c #707B93",
"-	c #5D9732",
";	c #516E4D",
">	c #444667",
",	c #363855",
"'	c #565774",
"      .         ",
"  . ..+. .      ",
" .+.@#+@.+..    ",
" .$#+@@#@+.+..  ",
" %&*$#+@+#@+.+. ",
" %*&&&$@+@+@#@. ",
" %&&==&&$@+-;>% ",
" %&=%%==&&;>,,% ",
" %===&%%==,'%%  ",
"  %%&==&%%%%',% ",
" %==%%&==&',>>% ",
" %&&==%%=&>>>'% ",
"  %%&&==&&>'>>% ",
"    %%&&&*>>>'% ",
"      %%*&'>%%  ",
"        %%%%    "};
